<svg xmlns="http://www.w3.org/2000/svg" viewBox="0 0 272.98761 139.26728"><defs><style>.a{fill-opacity:0;}.a,.c{stroke:#000;}.b{isolation:isolate;}</style></defs><title>mountain_800x400_export</title><path class="a" d="M176.51069,135.96569l-18.195-62.535-44.43,60.66Z" transform="translate(-65.63384 -30.5306)"/><path class="a" d="M226.38569,99.80069l-11.145-68.37-56.25,40.875Z" transform="translate(-65.63384 -30.5306)"/><path class="a" d="M251.44444,137.44444q2.28312-22.90938,4.56626-45.81874l-30.15,7.77Q238.65257,118.42007,251.44444,137.44444Z" transform="translate(-65.63384 -30.5306)"/><path class="a" d="M251.61111,137.27777q2.57479-22.92354,5.14959-45.84708l38.145-8.34Q273.25841,110.18424,251.61111,137.27777Z" transform="translate(-65.63384 -30.5306)"/><path class="a" d="M337.6257,136.9557l-86.40347,1.37763L296.1357,82.3407Z" transform="translate(-65.63384 -30.5306)"/><path class="a" d="M58.76375,26.60223" transform="translate(-65.63384 -30.5306)"/><path class="a" d="M58.76375,26.60223" transform="translate(-65.63384 -30.5306)"/><path class="a" d="M58.76375,26.60223" transform="translate(-65.63384 -30.5306)"/><path class="a" d="M58.76375,26.60223" transform="translate(-65.63384 -30.5306)"/><path class="a" d="M273.94444,54.94446,243.80069,68.0907l16.23,21.66Z" transform="translate(-65.63384 -30.5306)"/><path class="a" d="M259.94069,90.57568l36.42969-7.872q-10.67735-13.8765-21.35469-27.753Z" transform="translate(-65.63384 -30.5306)"/><path class="a" d="M159.4257,71.73569q-23.08323,30.8914-46.16644,61.78283L91.037,95.37038Z" transform="translate(-65.63384 -30.5306)"/><path class="a" d="M159.15569,71.51069l-32.355-28.92-35.745,51.885Z" transform="translate(-65.63384 -30.5306)"/><path class="a" d="M176.00069,135.9657q37.91633,1.21158,75.83264,2.42319l-25.68764-38.7082Z" transform="translate(-65.63384 -30.5306)"/><path class="a" d="M226.28069,99.6057l-49.26,35.61-18.99-62.43Z" transform="translate(-65.63384 -30.5306)"/><path class="a" d="M58.76375,26.60223" transform="translate(-65.63384 -30.5306)"/><path class="a" d="M112.52069,134.1057l-45.99.99,24.03-39.87Z" transform="translate(-65.63384 -30.5306)"/><g class="b"><g class="b"><path d="M127.34961,147.52246h1.75781l3.33985,6.31348,3.39111-6.31348h1.648v10.40772h-1.24512v-8.62061l-3.20068,5.63965h-1.24512l-3.20068-5.63965v8.62061h-1.24512Z" transform="translate(-65.63384 -30.5306)"/><path d="M145.499,147.4126a5.11039,5.11039,0,0,1,1.92969.3623,4.4581,4.4581,0,0,1,2.582,2.666,6.06134,6.06134,0,0,1,.37354,2.16455,6.16543,6.16543,0,0,1-.6333,2.83838,4.65975,4.65975,0,0,1-1.75782,1.91894,4.836,4.836,0,0,1-2.54541.67725,4.8975,4.8975,0,0,1-1.79443-.3335,4.83251,4.83251,0,0,1-1.54541-.97021,4.49,4.49,0,0,1-1.09863-1.66651,6.21246,6.21246,0,0,1-.41016-2.31787,6.29567,6.29567,0,0,1,.37354-2.21191,4.88156,4.88156,0,0,1,1.02539-1.688,4.54239,4.54239,0,0,1,1.55273-1.0625A5.00194,5.00194,0,0,1,145.499,147.4126Zm-.06591,1.09131a3.38465,3.38465,0,0,0-1.28174.249,3.6976,3.6976,0,0,0-1.13184.729,3.37979,3.37979,0,0,0-.82715,1.28907,5.04759,5.04759,0,0,0-.31152,1.82714,5.45256,5.45256,0,0,0,.28564,1.79786,4.07767,4.07767,0,0,0,.77637,1.38086,3.45467,3.45467,0,0,0,1.16065.86425,3.411,3.411,0,0,0,1.43945.30762,3.46547,3.46547,0,0,0,1.02148-.15381,3.2878,3.2878,0,0,0,.96338-.48681,3.57018,3.57018,0,0,0,.80908-.8169,3.91064,3.91064,0,0,0,.55664-1.19385,5.50035,5.50035,0,0,0,.209-1.56006,5.38691,5.38691,0,0,0-.21973-1.582,3.88871,3.88871,0,0,0-.582-1.20117,3.68056,3.68056,0,0,0-.84277-.81689,3.464,3.464,0,0,0-.98828-.4834A3.66612,3.66612,0,0,0,145.43311,148.50391Z" transform="translate(-65.63384 -30.5306)"/><path d="M153.49707,147.52246h1.24512v6.74561a4.65158,4.65158,0,0,0,.10644,1.06933,1.91854,1.91854,0,0,0,.4502.835A2.73349,2.73349,0,0,0,157.45947,157a3.09736,3.09736,0,0,0,1.7251-.45068,2.05552,2.05552,0,0,0,.897-1.27051,4.37378,4.37378,0,0,0,.09522-1.01074v-6.74561h1.23047q0,2.35107.0039,3.84522.00294,1.49413.00342,1.915,0,.42188.00342.67383c.00244.169.00391.30909.00391.42139q0,.33692-.01465.58936a4.91945,4.91945,0,0,1-.09864.66308,3.08023,3.08023,0,0,1-.231.71387,3.04672,3.04672,0,0,1-.44287.64844,2.52924,2.52924,0,0,1-.70313.56738,4.08546,4.08546,0,0,1-1.04.37012,6.38383,6.38383,0,0,1-1.43213.14648,6.04635,6.04635,0,0,1-1.53808-.17969,3.78755,3.78755,0,0,1-1.06934-.42822,2.76951,2.76951,0,0,1-.67041-.60059,2.68816,2.68816,0,0,1-.38769-.604,3.34584,3.34584,0,0,1-.17237-.53125,5.79563,5.79563,0,0,1-.12451-1.36963Z" transform="translate(-65.63384 -30.5306)"/><path d="M165.084,147.52246h1.57471l5.66895,8.7085v-8.7085h1.24511v10.40772h-1.5747L166.3291,149.207v8.72315H165.084Z" transform="translate(-65.63384 -30.5306)"/><path d="M175.7334,147.52246h8.20312v1.09863h-3.479v9.30909H179.2124v-9.30909h-3.479Z" transform="translate(-65.63384 -30.5306)"/><path d="M188.624,147.52246h1.41358l3.69873,10.40772h-1.25977l-1.05468-3.02491h-4.292l-1.05468,3.02491h-1.14991Zm.65186,1.21582-1.77246,5.07568h3.5376Z" transform="translate(-65.63384 -30.5306)"/><path d="M196.44629,147.52246h1.24512v10.40772h-1.24512Z" transform="translate(-65.63384 -30.5306)"/><path d="M201.57324,147.52246H203.148l5.66894,8.7085v-8.7085H210.062v10.40772H208.4873l-5.66894-8.72315v8.72315h-1.24512Z" transform="translate(-65.63384 -30.5306)"/><path d="M221.04834,147.52246a7.78,7.78,0,0,1,1.83838.20166,4.45254,4.45254,0,0,1,1.38818.56738,4.64184,4.64184,0,0,1,.96289.82764,3.51033,3.51033,0,0,1,.626,1.02881,6.13016,6.13016,0,0,1,.32617,1.11719,6.216,6.216,0,0,1,.10254,1.14257,8.151,8.151,0,0,1-.10254,1.311,6.35424,6.35424,0,0,1-.35547,1.28174,4.74718,4.74718,0,0,1-.64453,1.168,4.1057,4.1057,0,0,1-1.01416.93066,4.5033,4.5033,0,0,1-1.41357.61133,6.49081,6.49081,0,0,1-.91553.15381q-.50536.05127-.835.05859t-.93018.00733h-2.25586V147.52246Zm-1.97754,1.09863v8.21045h1.51611q.32959,0,.54541-.00732.21607-.00732.58594-.04395a3.908,3.908,0,0,0,.6377-.10986,5.42033,5.42033,0,0,0,.60742-.2124,2.70026,2.70026,0,0,0,.60449-.33692,3.36339,3.36339,0,0,0,.52734-.50537,3.51517,3.51517,0,0,0,.46143-.6958,4.85949,4.85949,0,0,0,.4834-2.26318,4.90973,4.90973,0,0,0-.26709-1.666,3.39987,3.39987,0,0,0-.71094-1.209,3.83,3.83,0,0,0-.94433-.73584,3.43785,3.43785,0,0,0-1.05127-.36621,5.9245,5.9245,0,0,0-.97412-.0586Z" transform="translate(-65.63384 -30.5306)"/><path d="M229.58838,157.93018V147.52246h6.10107v1.09863h-4.856v3.39844h4.45312v1.09863H230.8335v3.71338h4.856v1.09864Z" transform="translate(-65.63384 -30.5306)"/><path d="M240.23047,148.62109v3.39844h4.34326v1.09863h-4.34326v4.812h-1.24512V147.52246h6.02783v1.09863Z" transform="translate(-65.63384 -30.5306)"/><path d="M248.126,157.93018V147.52246h6.10107v1.09863h-4.856v3.39844h4.45313v1.09863h-4.45313v3.71338h4.856v1.09864Z" transform="translate(-65.63384 -30.5306)"/><path d="M257.52344,147.52246h1.57422l5.668,8.7085v-8.7085h1.24609v10.40772H264.4375l-5.66992-8.72315v8.72315h-1.24414Z" transform="translate(-65.63384 -30.5306)"/><path d="M273.56348,147.42725a8.98538,8.98538,0,0,1,2.585.41748l-.40332,1.13525a8.41619,8.41619,0,0,0-2.28516-.38086,3.458,3.458,0,0,0-1.834.458,1.35468,1.35468,0,0,0-.751,1.18262,1.153,1.153,0,0,0,.24121.71777,1.81408,1.81408,0,0,0,.6377.51269q.3955.19776.90136.39161c.33594.12988.67969.248,1.02832.35547a6.93168,6.93168,0,0,1,1.0293.41015,5.65749,5.65749,0,0,1,.90137.5459,2.17623,2.17623,0,0,1,.63672.77246,2.3449,2.3449,0,0,1,.24218,1.07666,2.67076,2.67076,0,0,1-.57226,1.65186,3.19257,3.19257,0,0,1-.76172.71386,3.86752,3.86752,0,0,1-1.14551.49805,5.81289,5.81289,0,0,1-1.542.19043,6.53238,6.53238,0,0,1-1.56348-.17578,12.4936,12.4936,0,0,1-1.60058-.52734l.4248-1.2085a8.92426,8.92426,0,0,0,2.89356.68115,3.32042,3.32042,0,0,0,1.8125-.44678,1.36125,1.36125,0,0,0,.69922-1.19384,1.27449,1.27449,0,0,0-.31153-.86036,2.26345,2.26345,0,0,0-.80566-.58593,10.58158,10.58158,0,0,0-1.09473-.418q-.60058-.19336-1.19726-.417a6.84164,6.84164,0,0,1-1.0918-.51661,2.36388,2.36388,0,0,1-.80567-.791,2.16906,2.16906,0,0,1-.31054-1.17188,2.42913,2.42913,0,0,1,.28906-1.1499,3.07034,3.07034,0,0,1,.80176-.96338,3.92414,3.92414,0,0,1,1.28222-.65918A5.473,5.473,0,0,1,273.56348,147.42725Z" transform="translate(-65.63384 -30.5306)"/><path d="M279.6416,157.93018V147.52246h6.10059v1.09863h-4.85547v3.39844h4.45312v1.09863h-4.45312v3.71338h4.85547v1.09864Z" transform="translate(-65.63384 -30.5306)"/></g></g><g class="b"><g class="b"><path d="M220.85645,163.92969a4.12214,4.12214,0,0,1,1.52539.30469l-.207.55761a4.193,4.193,0,0,0-1.34033-.269,2.06433,2.06433,0,0,0-.88037.18555,1.9224,1.9224,0,0,0-.67383.5,2.37048,2.37048,0,0,0-.41943.71923,2.41739,2.41739,0,0,0-.15234.84766,2.38162,2.38162,0,0,0,.15771.87256,2.23965,2.23965,0,0,0,.44629.72461,2.06569,2.06569,0,0,0,.71631.49463,2.38421,2.38421,0,0,0,.939.18457,3.751,3.751,0,0,0,1.27051-.23389l.2041.49951a4.14265,4.14265,0,0,1-1.646.35108,2.99642,2.99642,0,0,1-.94873-.14942,2.45976,2.45976,0,0,1-.77246-.41113,2.65719,2.65719,0,0,1-.56543-.62451,2.78467,2.78467,0,0,1-.356-.79444,3.37413,3.37413,0,0,1-.11768-.91162,3.08622,3.08622,0,0,1,.3418-1.45459,2.53562,2.53562,0,0,1,.98584-1.02A2.90351,2.90351,0,0,1,220.85645,163.92969Z" transform="translate(-65.63384 -30.5306)"/><path d="M223.09033,163.97559l.79492.00244,1.4253,2.32617,1.46972-2.31787.75147.00244-1.92236,2.95264-.00782,2.66162-.67236-.002.00781-2.66162Z" transform="translate(-65.63384 -30.5306)"/><path d="M228.83691,163.99219l1.98145.00586a2.13776,2.13776,0,0,1,.52783.0625,1.485,1.485,0,0,1,.395.15722,1.28748,1.28748,0,0,1,.27637.22657,1.17055,1.17055,0,0,1,.1831.25341,1.40039,1.40039,0,0,1,.16016.65723,1.20489,1.20489,0,0,1-.23535.68555,1.10807,1.10807,0,0,1-.49512.43994,1.39245,1.39245,0,0,1,.85449.50635,1.42988,1.42988,0,0,1,.332.93261,1.71107,1.71107,0,0,1-.022.25684,1.6761,1.6761,0,0,1-.08691.3042,1.63562,1.63562,0,0,1-.16309.32373,1.52406,1.52406,0,0,1-.27.30615,1.77492,1.77492,0,0,1-.39013.26172,2.27689,2.27689,0,0,1-.53809.17822,3.25445,3.25445,0,0,1-.69873.06739l-1.82715-.00538Zm.66407,2.9248-.00586,2.104,1.04834.00293c.09472.00048.17431,0,.23925-.001.06446-.00147.15723-.00879.27881-.02344a1.87607,1.87607,0,0,0,.31006-.0581,1.835,1.835,0,0,0,.2876-.11377.8247.8247,0,0,0,.25537-.18311.91933.91933,0,0,0,.165-.2749,1.02246,1.02246,0,0,0,.06836-.38086.96172.96172,0,0,0-.40479-.82422,1.8285,1.8285,0,0,0-1.09521-.2998Q230.57252,166.86475,229.501,166.917Zm.00683-2.40869-.00537,1.88672c.05029-.00244.13721-.00439.26123-.00537.12354-.00049.21973-.00195.28858-.00342.06836-.00049.16455-.00586.28857-.01465s.22363-.019.29932-.03076q.11279-.01758.273-.0542a1.289,1.289,0,0,0,.26074-.08642,1.68306,1.68306,0,0,0,.21435-.12647.62941.62941,0,0,0,.17627-.17139.87326.87326,0,0,0,.10547-.22705.96219.96219,0,0,0,.04248-.29052,1.02119,1.02119,0,0,0-.023-.22559.77724.77724,0,0,0-.09814-.22949.74129.74129,0,0,0-.19336-.21045,1.04138,1.04138,0,0,0-.32568-.14746,1.77612,1.77612,0,0,0-.481-.06006Z" transform="translate(-65.63384 -30.5306)"/><path d="M234.45361,169.62842l.01612-5.62012,3.29394.00977-.00146.59326-2.62207-.00781-.00537,1.835,2.40429.00732-.00146.59326-2.4043-.00732-.00586,2.00537,2.62207.00781-.00195.59326Z" transform="translate(-65.63384 -30.5306)"/><path d="M243.24854,165.57617a2.108,2.108,0,0,1-.06788.53369,1.7921,1.7921,0,0,1-.21142.48243,1.31919,1.31919,0,0,1-.39453.396,1.79339,1.79339,0,0,1-.58789.24561l1.5791,2.4209-.752-.002-1.51562-2.3457-1.08789-.00342-.00684,2.34131-.67578-.00195.01612-5.62012,2.06445.00635c.09473,0,.18066.00293.25683.0083a2.62416,2.62416,0,0,1,.29493.04248,1.60623,1.60623,0,0,1,.31836.0918,1.35479,1.35479,0,0,1,.28955.1748,1.0486,1.0486,0,0,1,.25195.27588,1.46647,1.46647,0,0,1,.166.40381A2.16868,2.16868,0,0,1,243.24854,165.57617Zm-3.03614,1.13428.96875.00293c.13477.00049.25391-.00391.35645-.01318a1.87584,1.87584,0,0,0,.36133-.07374.9917.9917,0,0,0,.34521-.16943.85962.85962,0,0,0,.23438-.31543,1.1551,1.1551,0,0,0,.09814-.49219,1.20182,1.20182,0,0,0-.05078-.36377.88676.88676,0,0,0-.12891-.26757.83377.83377,0,0,0-.19384-.18262,1.06392,1.06392,0,0,0-.22168-.11719,1.38971,1.38971,0,0,0-.23682-.064,1.97273,1.97273,0,0,0-.21484-.03028c-.05665-.0039-.11719-.00634-.18067-.00634l-1.13086-.00342Z" transform="translate(-65.63384 -30.5306)"/><path d="M249.54639,164.00049a4.85669,4.85669,0,0,1,1.3955.22949l-.21923.61231a4.53382,4.53382,0,0,0-1.23389-.209,1.87142,1.87142,0,0,0-.99121.24414.73148.73148,0,0,0-.40674.6377.6208.6208,0,0,0,.12842.38818.98155.98155,0,0,0,.34424.27783q.21313.10694.48584.2124c.18115.07032.3667.13526.55468.19385a3.714,3.714,0,0,1,.55518.22315,3.02842,3.02842,0,0,1,.48535.2959,1.1725,1.1725,0,0,1,.34277.41845,1.2563,1.2563,0,0,1,.1294.58155,1.43893,1.43893,0,0,1-.31152.89111,1.7175,1.7175,0,0,1-.41211.38428,2.09835,2.09835,0,0,1-.62012.26709,3.12391,3.12391,0,0,1-.832.10058,3.56286,3.56286,0,0,1-.84473-.09717,6.79764,6.79764,0,0,1-.86328-.28759l.23145-.65186a4.81428,4.81428,0,0,0,1.56152.37207,1.78366,1.78366,0,0,0,.979-.23828.7344.7344,0,0,0,.37989-.64355.695.695,0,0,0-.16651-.46534,1.24875,1.24875,0,0,0-.43457-.31738,5.77537,5.77537,0,0,0-.59033-.22754c-.2168-.07031-.43115-.146-.646-.227a3.65346,3.65346,0,0,1-.58886-.28027,1.26469,1.26469,0,0,1-.4336-.42871,1.16782,1.16782,0,0,1-.167-.6333,1.32314,1.32314,0,0,1,.1582-.62061,1.6638,1.6638,0,0,1,.43506-.51855,2.1048,2.1048,0,0,1,.69336-.354A2.95,2.95,0,0,1,249.54639,164.00049Z" transform="translate(-65.63384 -30.5306)"/><path d="M252.813,169.68164l.01611-5.62012,3.29395.00928-.002.59326-2.62158-.00732-.00537,1.835,2.4043.00684-.00147.59326-2.40429-.00684-.00586,2.00537,2.62158.00733-.001.59326Z" transform="translate(-65.63384 -30.5306)"/><path d="M260.65527,164.04443a4.12557,4.12557,0,0,1,1.52637.30469l-.207.55762a4.19019,4.19019,0,0,0-1.33984-.269,2.06631,2.06631,0,0,0-.88086.18505,1.93863,1.93863,0,0,0-.67383.50049,2.38931,2.38931,0,0,0-.41992.71875,2.45121,2.45121,0,0,0-.15235.84766,2.40178,2.40178,0,0,0,.15723.87256,2.27306,2.27306,0,0,0,.44726.72509,2.07437,2.07437,0,0,0,.7168.49463,2.37991,2.37991,0,0,0,.93848.18457,3.7628,3.7628,0,0,0,1.27051-.23388l.2041.499a4.13365,4.13365,0,0,1-1.64649.35156,2.99559,2.99559,0,0,1-.94824-.14941,2.45565,2.45565,0,0,1-.77246-.41162,2.66908,2.66908,0,0,1-.56543-.62451,2.81589,2.81589,0,0,1-.35644-.79395,3.399,3.399,0,0,1-.11719-.91211,3.08166,3.08166,0,0,1,.34179-1.45459,2.52693,2.52693,0,0,1,.98536-1.01953A2.89948,2.89948,0,0,1,260.65527,164.04443Z" transform="translate(-65.63384 -30.5306)"/><path d="M263.64258,164.09229l.67187.002-.01074,3.64258a2.55048,2.55048,0,0,0,.05664.57812,1.03591,1.03591,0,0,0,.24121.45117,1.47738,1.47738,0,0,0,1.166.4502,1.67368,1.67368,0,0,0,.93164-.24072,1.10838,1.10838,0,0,0,.48633-.68457,2.29843,2.29843,0,0,0,.05273-.54541l.01074-3.64258.665.002q-.00293,1.26928-.0039,2.07617-.00147.80714-.001,1.03467c0,.15137-.001.27246.001.36377.001.09082.001.1665.001.227,0,.12158-.00293.22754-.00879.31885a2.6207,2.6207,0,0,1-.05468.35742,1.64034,1.64034,0,0,1-.126.38477,1.61671,1.61671,0,0,1-.24023.34961,1.35969,1.35969,0,0,1-.38086.30566,2.1873,2.1873,0,0,1-.56153.19824,3.458,3.458,0,0,1-.77343.07666,3.25653,3.25653,0,0,1-.83008-.09912,2.06714,2.06714,0,0,1-.57715-.23291,1.5252,1.5252,0,0,1-.36133-.32568,1.46329,1.46329,0,0,1-.208-.32715,1.91015,1.91015,0,0,1-.09277-.28662,3.15617,3.15617,0,0,1-.06445-.74024Z" transform="translate(-65.63384 -30.5306)"/><path d="M273.60449,165.66357a2.108,2.108,0,0,1-.06836.5337,1.78759,1.78759,0,0,1-.21093.48193,1.3186,1.3186,0,0,1-.39551.39648,1.78792,1.78792,0,0,1-.58692.24561l1.57911,2.4209-.752-.002-1.51562-2.3457-1.08789-.00342-.00684,2.34131-.67578-.00195.01562-5.62012,2.06446.00586c.09472.00049.18066.00293.25683.00879a2.62416,2.62416,0,0,1,.29493.04248,1.60592,1.60592,0,0,1,.31835.0918,1.34084,1.34084,0,0,1,.28907.1748,1.03231,1.03231,0,0,1,.252.27588,1.41667,1.41667,0,0,1,.166.40381A2.16684,2.16684,0,0,1,273.60449,165.66357Zm-3.03711,1.13428.96875.00293c.13477.00049.25391-.00439.35645-.01318a1.8976,1.8976,0,0,0,.3623-.07373.98937.98937,0,0,0,.34473-.16944.85406.85406,0,0,0,.23437-.31543,1.155,1.155,0,0,0,.09766-.49218,1.1719,1.1719,0,0,0-.05078-.36377.85883.85883,0,0,0-.12891-.26758.8118.8118,0,0,0-.19336-.18262,1.04067,1.04067,0,0,0-.22168-.11719,1.39531,1.39531,0,0,0-.2373-.064,1.972,1.972,0,0,0-.21484-.03027c-.05664-.00391-.11719-.00635-.18067-.00635l-1.13086-.00342Z" transform="translate(-65.63384 -30.5306)"/><path d="M275.70508,164.127l.67285.002-.01563,5.62011-.67285-.00195Z" transform="translate(-65.63384 -30.5306)"/><path d="M277.66211,164.13281l4.42969.0127-.002.59326-1.87793-.00537-.01367,5.02685-.67285-.002.01367-5.02685-1.8789-.00538Z" transform="translate(-65.63384 -30.5306)"/><path d="M282.50781,164.147l.79492.002,1.42481,2.32617,1.4707-2.31787.751.00244-1.92285,2.95263-.00684,2.66163-.67285-.002.00684-2.66162Z" transform="translate(-65.63384 -30.5306)"/></g></g><path class="a" d="M58.76375,26.60223" transform="translate(-65.63384 -30.5306)"/><path class="a" d="M58.76375,26.60223" transform="translate(-65.63384 -30.5306)"/><path class="a" d="M58.76375,26.60223" transform="translate(-65.63384 -30.5306)"/><path class="a" d="M58.76375,26.60223" transform="translate(-65.63384 -30.5306)"/><path d="M58.76375,26.60223" transform="translate(-65.63384 -30.5306)"/><path class="a" d="M216.37037,32.37036q4.95516,33.46014,9.91032,66.92034l34.365-9.045Z" transform="translate(-65.63384 -30.5306)"/><path class="c" d="M307.55556,81.14816" transform="translate(-65.63384 -30.5306)"/><path class="c" d="M241.55556,141.33333" transform="translate(-65.63384 -30.5306)"/><path class="c" d="M249.11111,138.61111" transform="translate(-65.63384 -30.5306)"/><path class="c" d="M249.61111,136.66667" transform="translate(-65.63384 -30.5306)"/></svg>