<svg id="Layer_1" data-name="Layer 1" xmlns="http://www.w3.org/2000/svg" width="182.62" height="93.15" viewBox="0 0 182.62 93.15"><defs><style>.cls-1{fill-opacity:0;stroke:#000;}.cls-2{isolation:isolate;}</style></defs><title>mountain_as</title><path id="a3upTJlEOh" class="cls-1" d="M78.5,72.91,66.37,31.22,36.75,71.66Z" transform="translate(-4.28 -2.29)"/><path id="b7mTcSHko" class="cls-1" d="M111.75,48.8,104.32,3.22,66.82,30.47Z" transform="translate(-4.28 -2.29)"/><path id="e3C11y3wNL" class="cls-1" d="M128.43,73.6l3.07-30.25-20.1,5.18Z" transform="translate(-4.28 -2.29)"/><path id="acGrB9C12" class="cls-1" d="M128.59,73.35,132,43.22l25.43-5.56Z" transform="translate(-4.28 -2.29)"/><path id="c9dEl3PDG0" class="cls-1" d="M185.91,73.57l-58.13,1,30.47-37.37Z" transform="translate(-4.28 -2.29)"/><path id="bpSr7hSQJ" class="cls-1" d="M0,0" transform="translate(-4.28 -2.29)"/><path id="cH2YQCb1K" class="cls-1" d="M0,0" transform="translate(-4.28 -2.29)"/><path id="k4Fx11KAaC" class="cls-1" d="M0,0" transform="translate(-4.28 -2.29)"/><path id="kDIDkUnMK" class="cls-1" d="M0,0" transform="translate(-4.28 -2.29)"/><path id="djfHpndh" class="cls-1" d="M143.14,18.91l-19.78,8.75L134.18,42.1Z" transform="translate(-4.28 -2.29)"/><path id="dPIUScd3" class="cls-1" d="M134.12,42.65l24.27-5.25L144.17,18.9Z" transform="translate(-4.28 -2.29)"/><path id="c10UMxaYrW" class="cls-1" d="M67.11,30.09,36.18,71.18,21.51,46Z" transform="translate(-4.28 -2.29)"/><path id="cHbIAaAXW" class="cls-1" d="M66.93,29.94,45.36,10.66,21.53,45.25Z" transform="translate(-4.28 -2.29)"/><path id="a4ZS1oSzmg" class="cls-1" d="M78.16,72.91l50.09,1.67L111.59,48.72Z" transform="translate(-4.28 -2.29)"/><path id="bfimIHHFu" class="cls-1" d="M111.68,48.67,78.84,72.41,66.18,30.79Z" transform="translate(-4.28 -2.29)"/><path id="g11plxEFdz" class="cls-1" d="M0,0" transform="translate(-4.28 -2.29)"/><path id="a1a96YZSs9" class="cls-1" d="M35.84,71.67l-30.66.66,16-26.58Z" transform="translate(-4.28 -2.29)"/><g id="a1lkXdWTls"><g id="c5zj4Kp3dp" class="cls-2"><g class="cls-2"><path d="M45.72,80.61H46.9l2.22,4.21,2.26-4.21h1.1v6.94h-.83V81.81l-2.13,3.75h-.83l-2.14-3.75v5.74h-.83Z" transform="translate(-4.28 -2.29)"/><path d="M57.82,80.54a3.44,3.44,0,0,1,1.29.24,3.18,3.18,0,0,1,1,.68,3.06,3.06,0,0,1,.68,1.1A4,4,0,0,1,61.08,84a4.11,4.11,0,0,1-.42,1.89,3,3,0,0,1-1.17,1.28,3.16,3.16,0,0,1-1.7.46,3.24,3.24,0,0,1-1.2-.23,3,3,0,0,1-1.76-1.75,4.24,4.24,0,0,1-.27-1.55,4,4,0,0,1,.25-1.47,3,3,0,0,1,1.71-1.84A3.31,3.31,0,0,1,57.82,80.54Zm0,.73a2.3,2.3,0,0,0-.86.16,2.55,2.55,0,0,0-.75.49,2.24,2.24,0,0,0-.55.86A3.36,3.36,0,0,0,55.41,84a3.59,3.59,0,0,0,.19,1.2,2.83,2.83,0,0,0,.52.92,2.38,2.38,0,0,0,.77.57,2.24,2.24,0,0,0,1,.21,2.6,2.6,0,0,0,.68-.1,2.22,2.22,0,0,0,.65-.33,2.76,2.76,0,0,0,.54-.54,3,3,0,0,0,.37-.8,3.79,3.79,0,0,0,.14-1,3.46,3.46,0,0,0-.15-1,2.78,2.78,0,0,0-.39-.81,2.6,2.6,0,0,0-.56-.54,2.24,2.24,0,0,0-.66-.32A2.35,2.35,0,0,0,57.78,81.27Z" transform="translate(-4.28 -2.29)"/><path d="M63.16,80.61H64v4.5a2.88,2.88,0,0,0,.07.71,1.14,1.14,0,0,0,.3.56,1.8,1.8,0,0,0,1.44.55,2.07,2.07,0,0,0,1.15-.3,1.37,1.37,0,0,0,.59-.85,2.45,2.45,0,0,0,.07-.67v-4.5h.82v3.84c0,.19,0,.34,0,.45v.28c0,.15,0,.28,0,.4a3.5,3.5,0,0,1-.07.44,2.08,2.08,0,0,1-.15.48,2.27,2.27,0,0,1-.3.43,1.6,1.6,0,0,1-.47.38,2.9,2.9,0,0,1-.69.24,4,4,0,0,1-1,.1,4,4,0,0,1-1-.12,2.53,2.53,0,0,1-.71-.29,1.9,1.9,0,0,1-.45-.4,2,2,0,0,1-.26-.4,3.58,3.58,0,0,1-.11-.35,3.71,3.71,0,0,1-.08-.92Z" transform="translate(-4.28 -2.29)"/><path d="M70.88,80.61h1.05l3.78,5.81V80.61h.83v6.94H75.49l-3.78-5.81v5.81h-.83Z" transform="translate(-4.28 -2.29)"/><path d="M78,80.61h5.47v.74H81.13v6.2H80.3v-6.2H78Z" transform="translate(-4.28 -2.29)"/><path d="M86.57,80.61h1L90,87.55h-.84l-.7-2H85.58l-.71,2h-.76Zm.44.81-1.18,3.39h2.35Z" transform="translate(-4.28 -2.29)"/><path d="M91.79,80.61h.83v6.94h-.83Z" transform="translate(-4.28 -2.29)"/><path d="M95.21,80.61h1.05L100,86.42V80.61h.83v6.94H99.82L96,81.74v5.81h-.83Z" transform="translate(-4.28 -2.29)"/><path d="M108.19,80.61a5.2,5.2,0,0,1,1.23.14,2.9,2.9,0,0,1,1.56.93,2.27,2.27,0,0,1,.42.68,4.51,4.51,0,0,1,.22.75,4.67,4.67,0,0,1,.07.76,6.13,6.13,0,0,1-.07.87,4.83,4.83,0,0,1-.24.86,3,3,0,0,1-.43.78,2.74,2.74,0,0,1-.68.62,3.08,3.08,0,0,1-.94.41,4.57,4.57,0,0,1-.61.1l-.55,0H106V80.61Zm-1.32.74v5.47h1.38l.39,0a3.51,3.51,0,0,0,.42-.08,4,4,0,0,0,.41-.14,2.18,2.18,0,0,0,.4-.22,2.21,2.21,0,0,0,.35-.34,2.47,2.47,0,0,0,.31-.46,3.33,3.33,0,0,0,.32-1.51,3.23,3.23,0,0,0-.18-1.11,2.28,2.28,0,0,0-.47-.81,2.56,2.56,0,0,0-.63-.49,2.24,2.24,0,0,0-.7-.24,3.51,3.51,0,0,0-.65,0Z" transform="translate(-4.28 -2.29)"/><path d="M113.88,87.55V80.61H118v.74h-3.24v2.26h3v.73h-3v2.48H118v.73Z" transform="translate(-4.28 -2.29)"/><path d="M121,81.35v2.26h2.89v.73H121v3.21h-.83V80.61h4v.74Z" transform="translate(-4.28 -2.29)"/><path d="M126.24,87.55V80.61h4.07v.74h-3.24v2.26h3v.73h-3v2.48h3.24v.73Z" transform="translate(-4.28 -2.29)"/><path d="M132.51,80.61h1.05l3.77,5.81V80.61h.84v6.94h-1l-3.78-5.81v5.81h-.83Z" transform="translate(-4.28 -2.29)"/><path d="M143.2,80.55a5.82,5.82,0,0,1,1.72.28l-.27.76a5.56,5.56,0,0,0-1.52-.26,2.23,2.23,0,0,0-1.22.31.88.88,0,0,0-.5.79.74.74,0,0,0,.16.47,1.31,1.31,0,0,0,.42.35l.6.26.69.23A5,5,0,0,1,144,84a4.33,4.33,0,0,1,.6.36,1.46,1.46,0,0,1,.42.52,1.51,1.51,0,0,1,.16.71,1.82,1.82,0,0,1-.09.56,1.59,1.59,0,0,1-.29.54,2,2,0,0,1-.51.48,2.32,2.32,0,0,1-.76.33,3.68,3.68,0,0,1-1,.13,4.24,4.24,0,0,1-1-.12,8.23,8.23,0,0,1-1.07-.35l.29-.8a6,6,0,0,0,1.92.45,2.19,2.19,0,0,0,1.21-.3.91.91,0,0,0,.47-.79.84.84,0,0,0-.21-.58,1.57,1.57,0,0,0-.54-.39,7.47,7.47,0,0,0-.73-.28c-.26-.08-.53-.18-.79-.28a3.78,3.78,0,0,1-.73-.34,1.61,1.61,0,0,1-.54-.53,1.42,1.42,0,0,1-.21-.78,1.6,1.6,0,0,1,.2-.76,2.05,2.05,0,0,1,.53-.65,2.67,2.67,0,0,1,.86-.44A3.59,3.59,0,0,1,143.2,80.55Z" transform="translate(-4.28 -2.29)"/><path d="M147.25,87.55V80.61h4.07v.74h-3.24v2.26h3v.73h-3v2.48h3.24v.73Z" transform="translate(-4.28 -2.29)"/></g></g></g><g id="a5p3TAOZFz"><g id="awATbGmik" class="cls-2"><g class="cls-2"><path d="M108,91.53a2.85,2.85,0,0,1,1,.2l-.14.37a3,3,0,0,0-.9-.18,1.41,1.41,0,0,0-1,.46,1.64,1.64,0,0,0-.28.48,1.56,1.56,0,0,0-.1.57,1.65,1.65,0,0,0,.1.58,1.5,1.5,0,0,0,.3.48,1.37,1.37,0,0,0,.48.33,1.59,1.59,0,0,0,.62.12,2.39,2.39,0,0,0,.85-.15l.14.33a2.59,2.59,0,0,1-1.1.23,2.08,2.08,0,0,1-.63-.09,1.73,1.73,0,0,1-.52-.28,2.19,2.19,0,0,1-.38-.42,1.75,1.75,0,0,1-.23-.52,2.09,2.09,0,0,1-.08-.61,2,2,0,0,1,.23-1,1.7,1.7,0,0,1,.65-.68A1.93,1.93,0,0,1,108,91.53Z" transform="translate(-4.28 -2.29)"/><path d="M109.53,91.56h.53l1,1.55,1-1.54h.5l-1.28,2v1.77h-.45V93.54Z" transform="translate(-4.28 -2.29)"/><path d="M113.36,91.57h1.32a1.23,1.23,0,0,1,.35.05.85.85,0,0,1,.27.1.65.65,0,0,1,.18.15,1.36,1.36,0,0,1,.12.17,1,1,0,0,1,.07.18.49.49,0,0,1,0,.15.41.41,0,0,1,0,.11.8.8,0,0,1-.16.46.68.68,0,0,1-.33.29.9.9,0,0,1,.57.34.94.94,0,0,1,.22.62,1,1,0,0,1,0,.17.89.89,0,0,1-.06.2.91.91,0,0,1-.11.22.67.67,0,0,1-.18.2,1,1,0,0,1-.26.18,1.52,1.52,0,0,1-.36.12,2.19,2.19,0,0,1-.46,0h-1.22Zm.44,2v1.4h1l.21,0a1,1,0,0,0,.19-.08.43.43,0,0,0,.17-.12.78.78,0,0,0,.11-.18.66.66,0,0,0,0-.25.63.63,0,0,0-.27-.55,1.17,1.17,0,0,0-.73-.2Zm0-1.6v1.25h.56l.2,0,.18,0,.18-.06.14-.08a.46.46,0,0,0,.12-.12.52.52,0,0,0,.07-.15.58.58,0,0,0,0-.19.77.77,0,0,0,0-.15.47.47,0,0,0-.06-.15.44.44,0,0,0-.13-.14.64.64,0,0,0-.22-.1,1,1,0,0,0-.32,0Z" transform="translate(-4.28 -2.29)"/><path d="M117.1,95.33V91.58h2.2V92h-1.75V93.2h1.6v.39h-1.6v1.33h1.75v.39Z" transform="translate(-4.28 -2.29)"/><path d="M123,92.63a1.34,1.34,0,0,1,0,.35,1.3,1.3,0,0,1-.14.32.83.83,0,0,1-.26.27,1.14,1.14,0,0,1-.39.16l1.05,1.62h-.5l-1-1.56h-.73v1.56h-.45V91.59H122l.2,0a1.05,1.05,0,0,1,.21.06.88.88,0,0,1,.2.12.69.69,0,0,1,.16.18.67.67,0,0,1,.11.27A1.38,1.38,0,0,1,123,92.63Zm-2,.75h.65a1.91,1.91,0,0,0,.24,0l.24,0a.71.71,0,0,0,.23-.12.44.44,0,0,0,.15-.21.66.66,0,0,0,.07-.32,1,1,0,0,0,0-.25,1.5,1.5,0,0,0-.09-.18l-.13-.12-.15-.08L122,92l-.14,0H121Z" transform="translate(-4.28 -2.29)"/><path d="M127.17,91.58a3.32,3.32,0,0,1,.93.15l-.15.41a2.76,2.76,0,0,0-.82-.14,1.24,1.24,0,0,0-.66.16.52.52,0,0,0-.28.43.38.38,0,0,0,.09.25.71.71,0,0,0,.23.19,1.92,1.92,0,0,0,.32.14l.37.13a2.39,2.39,0,0,1,.37.15,2.06,2.06,0,0,1,.33.2.81.81,0,0,1,.23.28.92.92,0,0,1,.08.38.79.79,0,0,1-.05.3.88.88,0,0,1-.16.3,1.09,1.09,0,0,1-.27.25,1.19,1.19,0,0,1-.41.18,2,2,0,0,1-.56.07,2,2,0,0,1-.56-.07,3.87,3.87,0,0,1-.58-.19l.16-.43a3.62,3.62,0,0,0,1,.25,1.28,1.28,0,0,0,.65-.16.49.49,0,0,0,.25-.43.42.42,0,0,0-.11-.31.7.7,0,0,0-.29-.21,2.87,2.87,0,0,0-.39-.16,3.66,3.66,0,0,1-.43-.15,2.32,2.32,0,0,1-.39-.18.89.89,0,0,1-.29-.29.73.73,0,0,1-.11-.42.83.83,0,0,1,.1-.41,1.09,1.09,0,0,1,.29-.35,1.54,1.54,0,0,1,.46-.24A2,2,0,0,1,127.17,91.58Z" transform="translate(-4.28 -2.29)"/><path d="M129.34,95.36V91.62h2.2V92H129.8v1.23h1.6v.4h-1.6V95h1.75v.4Z" transform="translate(-4.28 -2.29)"/><path d="M134.57,91.61a2.65,2.65,0,0,1,1,.2l-.14.37a2.75,2.75,0,0,0-.89-.18,1.31,1.31,0,0,0-.59.13,1.25,1.25,0,0,0-.45.33,1.64,1.64,0,0,0-.28.48,1.5,1.5,0,0,0-.1.56,1.4,1.4,0,0,0,.11.58,1.59,1.59,0,0,0,.29.49,1.37,1.37,0,0,0,.48.33,1.61,1.61,0,0,0,.63.12,2.35,2.35,0,0,0,.84-.16l.14.34a2.89,2.89,0,0,1-1.1.23,1.89,1.89,0,0,1-.63-.1,1.71,1.71,0,0,1-.52-.27,1.86,1.86,0,0,1-.37-.42,1.7,1.7,0,0,1-.24-.53,2.37,2.37,0,0,1-.08-.61,2.07,2.07,0,0,1,.23-1,1.72,1.72,0,0,1,.66-.68A1.89,1.89,0,0,1,134.57,91.61Z" transform="translate(-4.28 -2.29)"/><path d="M136.56,91.64H137v2.43a2,2,0,0,0,0,.38.73.73,0,0,0,.16.3,1,1,0,0,0,.78.3,1.1,1.1,0,0,0,.62-.16.72.72,0,0,0,.33-.45,1.9,1.9,0,0,0,0-.37V91.64h.44v2.46a1.48,1.48,0,0,1,0,.22,1.11,1.11,0,0,1,0,.23.88.88,0,0,1-.09.26,1,1,0,0,1-.16.23.72.72,0,0,1-.25.21,1.4,1.4,0,0,1-.38.13,2.59,2.59,0,0,1-.51,0,2.4,2.4,0,0,1-.56-.06,1.55,1.55,0,0,1-.38-.16,1,1,0,0,1-.24-.22,1,1,0,0,1-.14-.21.76.76,0,0,1-.06-.2,1.65,1.65,0,0,1,0-.49Z" transform="translate(-4.28 -2.29)"/><path d="M143.2,92.68a1.37,1.37,0,0,1,0,.36,1.3,1.3,0,0,1-.14.32,1,1,0,0,1-.27.27,1.38,1.38,0,0,1-.39.16l1.06,1.61h-.51l-1-1.56h-.72V95.4h-.45V91.65h1.55l.2,0a.65.65,0,0,1,.21.06.5.5,0,0,1,.19.12.58.58,0,0,1,.17.18.84.84,0,0,1,.11.27A1.37,1.37,0,0,1,143.2,92.68Zm-2,.76h.88a.79.79,0,0,0,.24-.05.49.49,0,0,0,.23-.11.58.58,0,0,0,.16-.21.81.81,0,0,0,.07-.33.61.61,0,0,0,0-.24.75.75,0,0,0-.08-.18l-.13-.12-.15-.08-.16,0-.14,0h-.88Z" transform="translate(-4.28 -2.29)"/><path d="M144.6,91.66h.45v3.75h-.45Z" transform="translate(-4.28 -2.29)"/><path d="M145.91,91.66h3v.4h-1.25v3.36h-.45V92.06h-1.25Z" transform="translate(-4.28 -2.29)"/><path d="M149.14,91.67h.53l1,1.56,1-1.55h.5l-1.28,2v1.78h-.44V93.65Z" transform="translate(-4.28 -2.29)"/></g></g></g><path id="dB2LXvOXE" class="cls-1" d="M0,0" transform="translate(-4.28 -2.29)"/><path id="fRPtM5wZD" class="cls-1" d="M0,0" transform="translate(-4.28 -2.29)"/><path id="b3GZio1wy" class="cls-1" d="M0,0" transform="translate(-4.28 -2.29)"/><path id="i8sCAQpd9" class="cls-1" d="M0,0" transform="translate(-4.28 -2.29)"/><path id="d1xkCKGyRk" d="M0,0" transform="translate(-4.28 -2.29)"/><path id="e2T7TjBgyi" class="cls-1" d="M105.43,4.12l6.25,44.34,22.91-6Z" transform="translate(-4.28 -2.29)"/></svg>