<?xml version="1.0" encoding="utf-8"?>
<!-- Generator: Adobe Illustrator 23.0.2, SVG Export Plug-In . SVG Version: 6.00 Build 0)  -->
<svg version="1.0" id="Layer_1" xmlns="http://www.w3.org/2000/svg" xmlns:xlink="http://www.w3.org/1999/xlink" x="0px" y="0px"
	 viewBox="0 0 200 100" style="enable-background:new 0 0 200 100;" xml:space="preserve">
<style type="text/css">
	.st0{fill-opacity:0;stroke:#000000;}
	.st1{enable-background:new    ;}
</style>
<g>
	<g>
		<g>
			<g>
				<g>
					<path id="a3upTJlEOh" class="st0" d="M83.7,73.3L71.6,31.6L42,72.1L83.7,73.3z"/>
				</g>
			</g>
		</g>
		<g>
			<g>
				<g>
					<path id="b7mTcSHko" class="st0" d="M117,49.2l-7.4-45.6L72.1,30.9L117,49.2z"/>
				</g>
			</g>
		</g>
		<g>
			<g>
				<g>
					<path id="e3C11y3wNL" class="st0" d="M133.7,74l3.1-30.3L116.6,49L133.7,74z"/>
				</g>
			</g>
		</g>
		<g>
			<g>
				<g>
					<path id="acGrB9C12" class="st0" d="M133.8,73.8l3.4-30.1l25.4-5.6L133.8,73.8z"/>
				</g>
			</g>
		</g>
		<g>
			<g>
				<g>
					<path id="c9dEl3PDG0" class="st0" d="M191.1,74L133,75l30.5-37.4L191.1,74z"/>
				</g>
			</g>
		</g>
		<g>
			<g>
				<g>
					<path id="bpSr7hSQJ" class="st0" d="M5.2,0.4"/>
				</g>
			</g>
		</g>
		<g>
			<g>
				<g>
					<path id="cH2YQCb1K" class="st0" d="M5.2,0.4"/>
				</g>
			</g>
		</g>
		<g>
			<g>
				<g>
					<path id="k4Fx11KAaC" class="st0" d="M5.2,0.4"/>
				</g>
			</g>
		</g>
		<g>
			<g>
				<g>
					<path id="kDIDkUnMK" class="st0" d="M5.2,0.4"/>
				</g>
			</g>
		</g>
		<g>
			<g>
				<g>
					<path id="djfHpndh" class="st0" d="M148.4,19.3l-19.8,8.8l10.8,14.4L148.4,19.3z"/>
				</g>
			</g>
		</g>
		<g>
			<g>
				<g>
					<path id="dPIUScd3" class="st0" d="M139.4,43.1l24.3-5.3l-14.2-18.5L139.4,43.1z"/>
				</g>
			</g>
		</g>
		<g>
			<g>
				<g>
					<path id="c10UMxaYrW" class="st0" d="M72.3,30.5L41.4,71.6L26.7,46.4L72.3,30.5z"/>
				</g>
			</g>
		</g>
		<g>
			<g>
				<g>
					<path id="cHbIAaAXW" class="st0" d="M72.2,30.4L50.6,11.1L26.8,45.7L72.2,30.4z"/>
				</g>
			</g>
		</g>
		<g>
			<g>
				<g>
					<path id="a4ZS1oSzmg" class="st0" d="M83.4,73.3l50.1,1.7l-16.7-25.9L83.4,73.3z"/>
				</g>
			</g>
		</g>
		<g>
			<g>
				<g>
					<path id="bfimIHHFu" class="st0" d="M116.9,49.1L84.1,72.8L71.4,31.2L116.9,49.1z"/>
				</g>
			</g>
		</g>
		<g>
			<g>
				<g>
					<path id="g11plxEFdz" class="st0" d="M5.2,0.4"/>
				</g>
			</g>
		</g>
		<g>
			<g>
				<g>
					<path id="a1a96YZSs9" class="st0" d="M41.1,72.1l-30.7,0.7l16-26.6L41.1,72.1z"/>
				</g>
			</g>
		</g>
		<g id="a1lkXdWTls">
			<g>
				<g class="st1">
					<path d="M51,81h1.2l2.2,4.2l2.3-4.2h1.1V88h-0.8v-5.7L54.8,86h-0.8l-2.1-3.8V88H51V81z"/>
					<path d="M63.1,81c0.5,0,0.9,0.1,1.3,0.2c0.4,0.2,0.7,0.4,1,0.7s0.5,0.7,0.7,1.1c0.2,0.4,0.2,0.9,0.2,1.4c0,0.7-0.1,1.3-0.4,1.9
						c-0.3,0.6-0.7,1-1.2,1.3c-0.5,0.3-1.1,0.5-1.7,0.5c-0.4,0-0.8-0.1-1.2-0.2c-0.4-0.1-0.7-0.4-1-0.6s-0.6-0.7-0.7-1.1
						c-0.2-0.5-0.3-1-0.3-1.5c0-0.5,0.1-1,0.2-1.5s0.4-0.8,0.7-1.1c0.3-0.3,0.6-0.5,1-0.7C62.2,81.1,62.6,81,63.1,81z M63,81.7
						c-0.3,0-0.6,0.1-0.9,0.2s-0.5,0.3-0.8,0.5c-0.2,0.2-0.4,0.5-0.6,0.9c-0.1,0.4-0.2,0.8-0.2,1.2c0,0.4,0.1,0.8,0.2,1.2
						c0.1,0.4,0.3,0.7,0.5,0.9s0.5,0.4,0.8,0.6s0.6,0.2,1,0.2c0.2,0,0.5,0,0.7-0.1s0.4-0.2,0.6-0.3c0.2-0.1,0.4-0.3,0.5-0.5
						s0.3-0.5,0.4-0.8s0.1-0.7,0.1-1c0-0.4,0-0.7-0.1-1.1s-0.2-0.6-0.4-0.8s-0.3-0.4-0.6-0.5c-0.2-0.1-0.4-0.3-0.7-0.3
						C63.5,81.7,63.3,81.7,63,81.7z"/>
					<path d="M68.4,81h0.8v4.5c0,0.3,0,0.5,0.1,0.7s0.1,0.4,0.3,0.6c0.3,0.4,0.8,0.6,1.4,0.6c0.5,0,0.8-0.1,1.1-0.3
						c0.3-0.2,0.5-0.5,0.6-0.8c0-0.2,0.1-0.4,0.1-0.7V81h0.8c0,1,0,1.9,0,2.6s0,1.1,0,1.3c0,0.2,0,0.3,0,0.4c0,0.1,0,0.2,0,0.3
						c0,0.1,0,0.3,0,0.4c0,0.1,0,0.3-0.1,0.4s-0.1,0.3-0.2,0.5c-0.1,0.1-0.2,0.3-0.3,0.4s-0.3,0.3-0.5,0.4c-0.2,0.1-0.4,0.2-0.7,0.2
						s-0.6,0.1-1,0.1c-0.4,0-0.7,0-1-0.1c-0.3-0.1-0.5-0.2-0.7-0.3s-0.3-0.2-0.4-0.4s-0.2-0.3-0.3-0.4c0-0.1-0.1-0.2-0.1-0.4
						c-0.1-0.2-0.1-0.5-0.1-0.9V81z"/>
					<path d="M76.1,81h1l3.8,5.8V81h0.8V88h-1L77,82.2V88h-0.8V81z"/>
					<path d="M83.2,81h5.5v0.7h-2.3V88h-0.8v-6.2h-2.3V81z"/>
					<path d="M91.8,81h0.9l2.5,6.9h-0.8l-0.7-2h-2.9l-0.7,2h-0.8L91.8,81z M92.2,81.9l-1.2,3.4h2.4L92.2,81.9z"/>
					<path d="M97,81h0.8V88H97V81z"/>
					<path d="M100.4,81h1l3.8,5.8V81h0.8V88h-1l-3.8-5.8V88h-0.8V81z"/>
					<path d="M113.4,81c0.4,0,0.9,0,1.2,0.1c0.4,0.1,0.7,0.2,0.9,0.4s0.5,0.3,0.6,0.6s0.3,0.4,0.4,0.7c0.1,0.3,0.2,0.5,0.2,0.7
						s0.1,0.5,0.1,0.8c0,0.3,0,0.6-0.1,0.9s-0.1,0.6-0.2,0.9s-0.3,0.5-0.4,0.8c-0.2,0.2-0.4,0.4-0.7,0.6c-0.3,0.2-0.6,0.3-0.9,0.4
						c-0.2,0-0.4,0.1-0.6,0.1s-0.4,0-0.6,0s-0.4,0-0.6,0h-1.5V81H113.4z M112.1,81.8v5.5h1c0.1,0,0.3,0,0.4,0s0.2,0,0.4,0
						s0.3,0,0.4-0.1s0.3-0.1,0.4-0.1s0.3-0.1,0.4-0.2s0.2-0.2,0.4-0.3s0.2-0.3,0.3-0.5c0.2-0.4,0.3-0.9,0.3-1.5
						c0-0.4-0.1-0.8-0.2-1.1c-0.1-0.3-0.3-0.6-0.5-0.8c-0.2-0.2-0.4-0.4-0.6-0.5s-0.5-0.2-0.7-0.2c-0.1,0-0.4,0-0.6,0H112.1z"/>
					<path d="M119.1,88V81h4.1v0.7H120V84h3v0.7h-3v2.5h3.2V88H119.1z"/>
					<path d="M126.2,81.8V84h2.9v0.7h-2.9V88h-0.8V81h4v0.7H126.2z"/>
					<path d="M131.5,88V81h4.1v0.7h-3.2V84h3v0.7h-3v2.5h3.2V88H131.5z"/>
					<path d="M137.7,81h1l3.8,5.8V81h0.8V88h-1l-3.8-5.8V88h-0.8V81z"/>
					<path d="M148.4,81c0.5,0,1.1,0.1,1.7,0.3l-0.3,0.8c-0.6-0.2-1.1-0.3-1.5-0.3c-0.5,0-0.9,0.1-1.2,0.3c-0.3,0.2-0.5,0.5-0.5,0.8
						c0,0.2,0.1,0.3,0.2,0.5s0.2,0.3,0.4,0.3s0.4,0.2,0.6,0.3c0.2,0.1,0.5,0.2,0.7,0.2s0.5,0.2,0.7,0.3s0.4,0.2,0.6,0.4
						c0.2,0.1,0.3,0.3,0.4,0.5s0.2,0.5,0.2,0.7c0,0.2,0,0.4-0.1,0.6c-0.1,0.2-0.2,0.4-0.3,0.5c-0.1,0.2-0.3,0.3-0.5,0.5
						s-0.5,0.2-0.8,0.3s-0.7,0.1-1,0.1s-0.7,0-1-0.1s-0.7-0.2-1.1-0.4l0.3-0.8c0.8,0.3,1.5,0.5,1.9,0.5c0.5,0,0.9-0.1,1.2-0.3
						s0.5-0.5,0.5-0.8c0-0.2-0.1-0.4-0.2-0.6c-0.1-0.2-0.3-0.3-0.5-0.4c-0.2-0.1-0.5-0.2-0.7-0.3c-0.3-0.1-0.5-0.2-0.8-0.3
						c-0.3-0.1-0.5-0.2-0.7-0.3s-0.4-0.3-0.5-0.5s-0.2-0.5-0.2-0.8c0-0.3,0.1-0.5,0.2-0.8s0.3-0.5,0.5-0.6c0.2-0.2,0.5-0.3,0.9-0.4
						C147.7,81,148,81,148.4,81z"/>
					<path d="M152.5,88V81h4.1v0.7h-3.2V84h3v0.7h-3v2.5h3.2V88H152.5z"/>
				</g>
			</g>
		</g>
		<g id="a5p3TAOZFz">
			<g>
				<g class="st1">
					<path d="M113.3,92c0.3,0,0.7,0.1,1,0.2l-0.1,0.4c-0.3-0.1-0.6-0.2-0.9-0.2c-0.2,0-0.4,0-0.6,0.1c-0.2,0.1-0.3,0.2-0.4,0.3
						c-0.1,0.1-0.2,0.3-0.3,0.5c-0.1,0.2-0.1,0.4-0.1,0.6c0,0.2,0,0.4,0.1,0.6c0.1,0.2,0.2,0.3,0.3,0.5c0.1,0.1,0.3,0.2,0.5,0.3
						c0.2,0.1,0.4,0.1,0.6,0.1c0.3,0,0.6-0.1,0.8-0.2l0.1,0.3c-0.4,0.2-0.7,0.2-1.1,0.2c-0.2,0-0.4,0-0.6-0.1
						c-0.2-0.1-0.4-0.2-0.5-0.3c-0.1-0.1-0.3-0.3-0.4-0.4c-0.1-0.2-0.2-0.3-0.2-0.5s-0.1-0.4-0.1-0.6c0-0.4,0.1-0.7,0.2-1
						c0.2-0.3,0.4-0.5,0.7-0.7C112.6,92,112.9,92,113.3,92z"/>
					<path d="M114.8,92l0.5,0l1,1.6l1-1.5l0.5,0l-1.3,2l0,1.8l-0.4,0l0-1.8L114.8,92z"/>
					<path d="M118.6,92l1.3,0c0.1,0,0.2,0,0.4,0s0.2,0.1,0.3,0.1s0.1,0.1,0.2,0.2c0.1,0.1,0.1,0.1,0.1,0.2c0,0.1,0.1,0.1,0.1,0.2
						c0,0.1,0,0.1,0,0.2c0,0,0,0.1,0,0.1c0,0.2-0.1,0.3-0.2,0.5c-0.1,0.2-0.2,0.2-0.3,0.3c0.2,0,0.4,0.2,0.6,0.3
						c0.1,0.2,0.2,0.4,0.2,0.6c0,0.1,0,0.1,0,0.2c0,0.1,0,0.1-0.1,0.2c0,0.1-0.1,0.1-0.1,0.2c0,0.1-0.1,0.1-0.2,0.2
						c-0.1,0.1-0.2,0.1-0.3,0.2s-0.2,0.1-0.4,0.1s-0.3,0-0.5,0l-1.2,0L118.6,92z M119,93.9l0,1.4l0.7,0c0.1,0,0.1,0,0.2,0
						c0,0,0.1,0,0.2,0c0.1,0,0.2,0,0.2,0s0.1,0,0.2-0.1s0.1-0.1,0.2-0.1s0.1-0.1,0.1-0.2c0-0.1,0-0.2,0-0.3c0-0.2-0.1-0.4-0.3-0.5
						c-0.2-0.1-0.4-0.2-0.7-0.2C119.8,93.9,119.5,93.9,119,93.9z M119,92.3l0,1.3c0,0,0.1,0,0.2,0c0.1,0,0.1,0,0.2,0
						c0,0,0.1,0,0.2,0c0.1,0,0.1,0,0.2,0c0.1,0,0.1,0,0.2,0s0.1,0,0.2-0.1c0,0,0.1,0,0.1-0.1c0.1,0,0.1-0.1,0.1-0.1
						c0,0,0.1-0.1,0.1-0.2c0-0.1,0-0.1,0-0.2c0-0.1,0-0.1,0-0.2c0,0,0-0.1-0.1-0.2c0-0.1-0.1-0.1-0.1-0.1c-0.1,0-0.1-0.1-0.2-0.1
						c-0.1,0-0.2,0-0.3,0L119,92.3z"/>
					<path d="M122.3,95.8l0-3.7l2.2,0l0,0.4l-1.7,0l0,1.2l1.6,0l0,0.4l-1.6,0l0,1.3l1.7,0l0,0.4L122.3,95.8z"/>
					<path d="M128.2,93.1c0,0.1,0,0.2,0,0.4c0,0.1-0.1,0.2-0.1,0.3c-0.1,0.1-0.2,0.2-0.3,0.3s-0.2,0.1-0.4,0.2l1.1,1.6l-0.5,0
						l-1-1.6l-0.7,0l0,1.6l-0.5,0l0-3.7l1.4,0c0.1,0,0.1,0,0.2,0c0.1,0,0.1,0,0.2,0c0.1,0,0.2,0,0.2,0.1c0.1,0,0.1,0.1,0.2,0.1
						c0.1,0.1,0.1,0.1,0.2,0.2s0.1,0.2,0.1,0.3C128.2,92.8,128.2,92.9,128.2,93.1z M126.2,93.8l0.6,0c0.1,0,0.2,0,0.2,0
						c0.1,0,0.1,0,0.2,0c0.1,0,0.2-0.1,0.2-0.1c0.1,0,0.1-0.1,0.2-0.2c0-0.1,0.1-0.2,0.1-0.3c0-0.1,0-0.2,0-0.2
						c0-0.1-0.1-0.1-0.1-0.2s-0.1-0.1-0.1-0.1c-0.1,0-0.1-0.1-0.1-0.1s-0.1,0-0.2,0c-0.1,0-0.1,0-0.1,0c0,0-0.1,0-0.1,0l-0.8,0
						L126.2,93.8z"/>
					<path d="M132.4,92c0.3,0,0.6,0.1,0.9,0.2l-0.1,0.4c-0.3-0.1-0.6-0.1-0.8-0.1c-0.3,0-0.5,0.1-0.7,0.2c-0.2,0.1-0.3,0.3-0.3,0.4
						c0,0.1,0,0.2,0.1,0.3c0.1,0.1,0.1,0.1,0.2,0.2c0.1,0,0.2,0.1,0.3,0.1c0.1,0,0.2,0.1,0.4,0.1c0.1,0,0.2,0.1,0.4,0.1
						c0.1,0.1,0.2,0.1,0.3,0.2c0.1,0.1,0.2,0.2,0.2,0.3c0.1,0.1,0.1,0.2,0.1,0.4c0,0.1,0,0.2,0,0.3c0,0.1-0.1,0.2-0.2,0.3
						c-0.1,0.1-0.2,0.2-0.3,0.3s-0.2,0.1-0.4,0.2c-0.2,0-0.4,0.1-0.6,0.1c-0.2,0-0.4,0-0.6-0.1c-0.2,0-0.4-0.1-0.6-0.2l0.2-0.4
						c0.4,0.2,0.8,0.2,1,0.2c0.3,0,0.5-0.1,0.7-0.2c0.2-0.1,0.3-0.3,0.3-0.4c0-0.1,0-0.2-0.1-0.3c-0.1-0.1-0.2-0.2-0.3-0.2
						c-0.1-0.1-0.3-0.1-0.4-0.2c-0.1,0-0.3-0.1-0.4-0.2c-0.1-0.1-0.3-0.1-0.4-0.2c-0.1-0.1-0.2-0.2-0.3-0.3
						c-0.1-0.1-0.1-0.3-0.1-0.4c0-0.1,0-0.3,0.1-0.4c0.1-0.1,0.2-0.2,0.3-0.3c0.1-0.1,0.3-0.2,0.5-0.2C132,92,132.2,92,132.4,92z"/>
					<path d="M134.6,95.8l0-3.7l2.2,0l0,0.4l-1.7,0l0,1.2l1.6,0l0,0.4l-1.6,0l0,1.3l1.7,0l0,0.4L134.6,95.8z"/>
					<path d="M139.8,92c0.3,0,0.7,0.1,1,0.2l-0.1,0.4c-0.3-0.1-0.6-0.2-0.9-0.2c-0.2,0-0.4,0-0.6,0.1c-0.2,0.1-0.3,0.2-0.4,0.3
						s-0.2,0.3-0.3,0.5c-0.1,0.2-0.1,0.4-0.1,0.6c0,0.2,0,0.4,0.1,0.6s0.2,0.3,0.3,0.5c0.1,0.1,0.3,0.2,0.5,0.3
						c0.2,0.1,0.4,0.1,0.6,0.1c0.3,0,0.6-0.1,0.8-0.2l0.1,0.3c-0.4,0.2-0.7,0.2-1.1,0.2c-0.2,0-0.4,0-0.6-0.1
						c-0.2-0.1-0.4-0.2-0.5-0.3c-0.1-0.1-0.3-0.3-0.4-0.4c-0.1-0.2-0.2-0.3-0.2-0.5c-0.1-0.2-0.1-0.4-0.1-0.6c0-0.4,0.1-0.7,0.2-1
						c0.2-0.3,0.4-0.5,0.7-0.7C139.1,92.1,139.4,92,139.8,92z"/>
					<path d="M141.8,92.1l0.4,0l0,2.4c0,0.1,0,0.3,0,0.4c0,0.1,0.1,0.2,0.2,0.3c0.2,0.2,0.4,0.3,0.8,0.3c0.2,0,0.5-0.1,0.6-0.2
						c0.2-0.1,0.3-0.3,0.3-0.5c0-0.1,0-0.2,0-0.4l0-2.4l0.4,0c0,0.6,0,1,0,1.4c0,0.4,0,0.6,0,0.7c0,0.1,0,0.2,0,0.2
						c0,0.1,0,0.1,0,0.2c0,0.1,0,0.2,0,0.2c0,0.1,0,0.1,0,0.2c0,0.1,0,0.2-0.1,0.3c0,0.1-0.1,0.2-0.2,0.2c-0.1,0.1-0.2,0.2-0.3,0.2
						c-0.1,0.1-0.2,0.1-0.4,0.1c-0.2,0-0.3,0.1-0.5,0.1c-0.2,0-0.4,0-0.6-0.1c-0.2,0-0.3-0.1-0.4-0.2s-0.2-0.1-0.2-0.2
						c-0.1-0.1-0.1-0.2-0.1-0.2c0-0.1,0-0.1-0.1-0.2c0-0.1,0-0.3,0-0.5L141.8,92.1z"/>
					<path d="M148.4,93.1c0,0.1,0,0.2,0,0.4c0,0.1-0.1,0.2-0.1,0.3c-0.1,0.1-0.2,0.2-0.3,0.3c-0.1,0.1-0.2,0.1-0.4,0.2l1.1,1.6
						l-0.5,0l-1-1.6l-0.7,0l0,1.6l-0.5,0l0-3.7l1.4,0c0.1,0,0.1,0,0.2,0c0.1,0,0.1,0,0.2,0s0.2,0,0.2,0.1c0.1,0,0.1,0.1,0.2,0.1
						c0.1,0.1,0.1,0.1,0.2,0.2s0.1,0.2,0.1,0.3C148.4,92.9,148.4,93,148.4,93.1z M146.4,93.9l0.6,0c0.1,0,0.2,0,0.2,0
						c0.1,0,0.1,0,0.2,0c0.1,0,0.2-0.1,0.2-0.1c0.1,0,0.1-0.1,0.2-0.2c0-0.1,0.1-0.2,0.1-0.3c0-0.1,0-0.2,0-0.2
						c0-0.1-0.1-0.1-0.1-0.2c0,0-0.1-0.1-0.1-0.1c-0.1,0-0.1-0.1-0.1-0.1c0,0-0.1,0-0.2,0s-0.1,0-0.1,0c0,0-0.1,0-0.1,0l-0.8,0
						L146.4,93.9z"/>
					<path d="M149.8,92.1l0.4,0l0,3.7l-0.4,0L149.8,92.1z"/>
					<path d="M151.2,92.1l3,0l0,0.4l-1.3,0l0,3.4l-0.4,0l0-3.4l-1.3,0L151.2,92.1z"/>
					<path d="M154.4,92.1l0.5,0l1,1.6l1-1.5l0.5,0l-1.3,2l0,1.8l-0.4,0l0-1.8L154.4,92.1z"/>
				</g>
			</g>
		</g>
		<g>
			<g>
				<g>
					<path id="dB2LXvOXE" class="st0" d="M5.2,0.4"/>
				</g>
			</g>
		</g>
		<g>
			<g>
				<g>
					<path id="fRPtM5wZD" class="st0" d="M5.2,0.4"/>
				</g>
			</g>
		</g>
		<g>
			<g>
				<g>
					<path id="b3GZio1wy" class="st0" d="M5.2,0.4"/>
				</g>
			</g>
		</g>
		<g>
			<g>
				<g>
					<path id="i8sCAQpd9" class="st0" d="M5.2,0.4"/>
				</g>
			</g>
		</g>
		<g>
			<g>
				<g>
					<path id="d1xkCKGyRk" d="M5.2,0.4"/>
				</g>
			</g>
		</g>
		<g>
			<g>
				<g>
					<path id="e2T7TjBgyi" class="st0" d="M110.7,4.5l6.3,44.3l22.9-6L110.7,4.5z"/>
				</g>
			</g>
		</g>
	</g>
</g>
</svg>
