<svg id="Layer_1" data-name="Layer 1" xmlns="http://www.w3.org/2000/svg" viewBox="0 0 182.62 93.15"><title>mountain_as2</title><path id="a3upTJlEOh" d="M83.74,73.33,71.61,31.64,42,72.08Z" transform="translate(-9.52 -2.72)" fill-opacity="0" stroke="#000"/><path id="b7mTcSHko" d="M117,49.22,109.56,3.64,72.06,30.89Z" transform="translate(-9.52 -2.72)" fill-opacity="0" stroke="#000"/><path id="e3C11y3wNL" d="M133.67,74l3.07-30.25L116.64,49Z" transform="translate(-9.52 -2.72)" fill-opacity="0" stroke="#000"/><path id="acGrB9C12" d="M133.83,73.77l3.41-30.13,25.43-5.56Z" transform="translate(-9.52 -2.72)" fill-opacity="0" stroke="#000"/><path id="c9dEl3PDG0" d="M191.15,74,133,75l30.47-37.37Z" transform="translate(-9.52 -2.72)" fill-opacity="0" stroke="#000"/><path id="bpSr7hSQJ" d="M5.24.43" transform="translate(-9.52 -2.72)" fill-opacity="0" stroke="#000"/><path id="cH2YQCb1K" d="M5.24.43" transform="translate(-9.52 -2.72)" fill-opacity="0" stroke="#000"/><path id="k4Fx11KAaC" d="M5.24.43" transform="translate(-9.52 -2.72)" fill-opacity="0" stroke="#000"/><path id="kDIDkUnMK" d="M5.24.43" transform="translate(-9.52 -2.72)" fill-opacity="0" stroke="#000"/><path id="djfHpndh" d="M148.38,19.33,128.6,28.08l10.82,14.44Z" transform="translate(-9.52 -2.72)" fill-opacity="0" stroke="#000"/><path id="dPIUScd3" d="M139.36,43.07l24.27-5.25-14.22-18.5Z" transform="translate(-9.52 -2.72)" fill-opacity="0" stroke="#000"/><path id="c10UMxaYrW" d="M72.35,30.51,41.42,71.6,26.75,46.41Z" transform="translate(-9.52 -2.72)" fill-opacity="0" stroke="#000"/><path id="cHbIAaAXW" d="M72.17,30.36,50.6,11.08,26.77,45.67Z" transform="translate(-9.52 -2.72)" fill-opacity="0" stroke="#000"/><path id="a4ZS1oSzmg" d="M83.4,73.33,133.49,75,116.83,49.14Z" transform="translate(-9.52 -2.72)" fill-opacity="0" stroke="#000"/><path id="bfimIHHFu" d="M116.92,49.09,84.08,72.83,71.42,31.21Z" transform="translate(-9.52 -2.72)" fill-opacity="0" stroke="#000"/><path id="g11plxEFdz" d="M5.24.43" transform="translate(-9.52 -2.72)" fill-opacity="0" stroke="#000"/><path id="a1a96YZSs9" d="M41.08,72.09l-30.66.66,16-26.58Z" transform="translate(-9.52 -2.72)" fill-opacity="0" stroke="#000"/><g id="a1lkXdWTls"><g id="c5zj4Kp3dp" style="isolation:isolate"><g style="isolation:isolate"><path d="M51,81h1.18l2.22,4.21L56.62,81h1.1V88h-.83V82.23L54.76,86h-.83l-2.14-3.76V88H51Z" transform="translate(-9.52 -2.72)"/><path d="M63.06,81a3.44,3.44,0,0,1,1.29.24,3.18,3.18,0,0,1,1,.68,3,3,0,0,1,.68,1.1,3.89,3.89,0,0,1,.25,1.44,4.11,4.11,0,0,1-.42,1.89,3.09,3.09,0,0,1-1.17,1.28,3.41,3.41,0,0,1-2.9.23,3.2,3.2,0,0,1-1-.65,3,3,0,0,1-.73-1.11,4.52,4.52,0,0,1,0-3,3.06,3.06,0,0,1,.68-1.12,2.92,2.92,0,0,1,1-.71A3.26,3.26,0,0,1,63.06,81Zm0,.72a2.22,2.22,0,0,0-.85.17,2.3,2.3,0,0,0-.76.49,2.28,2.28,0,0,0-.55.85,3.36,3.36,0,0,0-.21,1.22,3.77,3.77,0,0,0,.19,1.2,2.64,2.64,0,0,0,.52.92,2.41,2.41,0,0,0,.77.58,2.39,2.39,0,0,0,1.64.1,2.46,2.46,0,0,0,.65-.32,2.57,2.57,0,0,0,.54-.55,2.9,2.9,0,0,0,.37-.79,3.84,3.84,0,0,0,.14-1,3.53,3.53,0,0,0-.15-1.06,2.71,2.71,0,0,0-.39-.8,2.39,2.39,0,0,0-.56-.54,2.27,2.27,0,0,0-.66-.33A2.74,2.74,0,0,0,63,81.69Z" transform="translate(-9.52 -2.72)"/><path d="M68.4,81h.83v4.5a3,3,0,0,0,.07.71,1.19,1.19,0,0,0,.3.56,1.83,1.83,0,0,0,1.44.55,2.07,2.07,0,0,0,1.15-.3,1.42,1.42,0,0,0,.6-.85,3.07,3.07,0,0,0,.06-.67V81h.82v3.84c0,.19,0,.34,0,.45v.28c0,.15,0,.28,0,.39a3.5,3.5,0,0,1-.07.44,1.81,1.81,0,0,1-.15.48,1.77,1.77,0,0,1-.3.43,1.53,1.53,0,0,1-.46.38A3.14,3.14,0,0,1,72,88a4.54,4.54,0,0,1-.95.1A4,4,0,0,1,70,88a2.53,2.53,0,0,1-.71-.29,1.9,1.9,0,0,1-.45-.4,2.38,2.38,0,0,1-.26-.4,3.07,3.07,0,0,1-.11-.36,3.62,3.62,0,0,1-.08-.91Z" transform="translate(-9.52 -2.72)"/><path d="M76.12,81h1L81,86.85V81h.83V88h-1L77,82.16V88h-.83Z" transform="translate(-9.52 -2.72)"/><path d="M83.22,81h5.47v.73H86.37V88h-.83V81.77H83.22Z" transform="translate(-9.52 -2.72)"/><path d="M91.81,81h1L95.22,88h-.84l-.7-2H90.82l-.71,2h-.76Zm.44.81-1.18,3.38h2.36Z" transform="translate(-9.52 -2.72)"/><path d="M97,81h.83V88H97Z" transform="translate(-9.52 -2.72)"/><path d="M100.45,81h1l3.78,5.81V81h.83V88h-1l-3.78-5.82V88h-.83Z" transform="translate(-9.52 -2.72)"/><path d="M113.43,81a5.22,5.22,0,0,1,1.23.13,3.11,3.11,0,0,1,.92.38,3.48,3.48,0,0,1,.64.55,2.46,2.46,0,0,1,.42.69,4.41,4.41,0,0,1,.22.74,4.79,4.79,0,0,1,.07.77,6.13,6.13,0,0,1-.07.87,4.73,4.73,0,0,1-.24.85,3,3,0,0,1-.43.78,2.67,2.67,0,0,1-.67.62,3,3,0,0,1-1,.41,3.38,3.38,0,0,1-.61.1,4.16,4.16,0,0,1-.55,0h-2.13V81Zm-1.32.73v5.48h1.38l.39,0a3.66,3.66,0,0,0,.42-.07,3.34,3.34,0,0,0,.41-.14,1.74,1.74,0,0,0,.4-.23,2.65,2.65,0,0,0,.35-.33,2.55,2.55,0,0,0,.31-.47,3.27,3.27,0,0,0,.32-1.51,3.23,3.23,0,0,0-.18-1.11,2.15,2.15,0,0,0-.47-.8,2.56,2.56,0,0,0-.63-.49,2.26,2.26,0,0,0-.7-.25,3.51,3.51,0,0,0-.65,0Z" transform="translate(-9.52 -2.72)"/><path d="M119.12,88V81h4.07v.73H120V84h3v.73h-3v2.48h3.24V88Z" transform="translate(-9.52 -2.72)"/><path d="M126.22,81.77V84h2.89v.73h-2.89V88h-.83V81h4v.73Z" transform="translate(-9.52 -2.72)"/><path d="M131.48,88V81h4.07v.73h-3.24V84h3v.73h-3v2.48h3.24V88Z" transform="translate(-9.52 -2.72)"/><path d="M137.75,81h1.05l3.78,5.81V81h.83V88h-1l-3.78-5.82V88h-.83Z" transform="translate(-9.52 -2.72)"/><path d="M148.44,81a6.13,6.13,0,0,1,1.72.27l-.26.76a5.62,5.62,0,0,0-1.53-.25,2.32,2.32,0,0,0-1.22.3.9.9,0,0,0-.5.79.75.75,0,0,0,.16.48,1.28,1.28,0,0,0,.42.34,5.68,5.68,0,0,0,.6.26l.69.24a4.92,4.92,0,0,1,.69.27,4.36,4.36,0,0,1,.6.37,1.5,1.5,0,0,1,.58,1.23,2,2,0,0,1-.08.55,1.76,1.76,0,0,1-.3.55,2,2,0,0,1-.51.48,2.84,2.84,0,0,1-.76.33,4.09,4.09,0,0,1-1,.13,4.24,4.24,0,0,1-1-.12,10.11,10.11,0,0,1-1.07-.35l.29-.81a6,6,0,0,0,1.92.46A2.19,2.19,0,0,0,149,87a.92.92,0,0,0,.47-.8.84.84,0,0,0-.21-.57,1.62,1.62,0,0,0-.53-.39c-.22-.1-.47-.19-.73-.28l-.8-.28a4.48,4.48,0,0,1-.73-.34,1.61,1.61,0,0,1-.54-.53,1.42,1.42,0,0,1-.21-.78,1.64,1.64,0,0,1,.2-.77,2,2,0,0,1,.53-.64,2.67,2.67,0,0,1,.86-.44A3.59,3.59,0,0,1,148.44,81Z" transform="translate(-9.52 -2.72)"/><path d="M152.49,88V81h4.07v.73h-3.24V84h3v.73h-3v2.48h3.24V88Z" transform="translate(-9.52 -2.72)"/></g></g></g><g id="a5p3TAOZFz"><g id="awATbGmik" style="isolation:isolate"><g style="isolation:isolate"><path d="M113.28,92a2.65,2.65,0,0,1,1,.2l-.14.37a2.75,2.75,0,0,0-.89-.18,1.32,1.32,0,0,0-1,.46,1.64,1.64,0,0,0-.28.48,1.5,1.5,0,0,0-.1.56,1.57,1.57,0,0,0,.1.58,1.44,1.44,0,0,0,.3.49,1.37,1.37,0,0,0,.48.33,1.59,1.59,0,0,0,.62.12,2.37,2.37,0,0,0,.85-.16l.14.34a2.93,2.93,0,0,1-1.1.23,1.81,1.81,0,0,1-.63-.1,1.71,1.71,0,0,1-.52-.27,2.19,2.19,0,0,1-.38-.42,1.94,1.94,0,0,1-.23-.53,2.37,2.37,0,0,1-.08-.61,2.07,2.07,0,0,1,.23-1,1.72,1.72,0,0,1,.66-.68A1.86,1.86,0,0,1,113.28,92Z" transform="translate(-9.52 -2.72)"/><path d="M114.77,92h.53l1,1.55,1-1.55h.5l-1.28,2v1.78H116V94Z" transform="translate(-9.52 -2.72)"/><path d="M118.6,92h1.32a1.25,1.25,0,0,1,.35,0,1.16,1.16,0,0,1,.27.11.65.65,0,0,1,.18.15.59.59,0,0,1,.12.17.87.87,0,0,1,.07.17.49.49,0,0,1,0,.15.49.49,0,0,1,0,.12.75.75,0,0,1-.16.45.77.77,0,0,1-.33.3A.93.93,0,0,1,121,94a1,1,0,0,1,.22.62.83.83,0,0,1-.07.38,1.14,1.14,0,0,1-.29.42,1,1,0,0,1-.26.17,1.38,1.38,0,0,1-.36.12,2.16,2.16,0,0,1-.46,0h-1.22Zm.44,2v1.4h.86l.18,0a1.18,1.18,0,0,0,.21,0l.19-.08a.43.43,0,0,0,.17-.12.54.54,0,0,0,.11-.18.71.71,0,0,0,0-.26.65.65,0,0,0-.27-.55,1.24,1.24,0,0,0-.73-.2Zm0-1.61V93.6h.56l.2,0,.18,0,.18-.06.14-.09a.43.43,0,0,0,.12-.11.52.52,0,0,0,.07-.15.6.6,0,0,0,0-.2.63.63,0,0,0-.08-.3.86.86,0,0,0-.13-.14.9.9,0,0,0-.22-.1,1.47,1.47,0,0,0-.32,0Z" transform="translate(-9.52 -2.72)"/><path d="M122.34,95.75V92h2.2v.4H122.8v1.23h1.6V94h-1.6v1.34h1.75v.39Z" transform="translate(-9.52 -2.72)"/><path d="M128.21,93.05a1.36,1.36,0,0,1-.05.36,1,1,0,0,1-.14.32.81.81,0,0,1-.26.26,1.15,1.15,0,0,1-.39.17l1,1.61h-.5l-1-1.56h-.73v1.56h-.45V92h1.55l.19,0,.21.07a.66.66,0,0,1,.2.11,1,1,0,0,1,.17.19,1.16,1.16,0,0,1,.11.27A1.88,1.88,0,0,1,128.21,93.05Zm-2,.76h.89a.79.79,0,0,0,.24,0,.55.55,0,0,0,.23-.11.57.57,0,0,0,.15-.21.67.67,0,0,0,.07-.33.88.88,0,0,0,0-.24,1.5,1.5,0,0,0-.09-.18.49.49,0,0,0-.13-.12.55.55,0,0,0-.15-.08l-.15,0-.15,0h-.87Z" transform="translate(-9.52 -2.72)"/><path d="M132.41,92a3,3,0,0,1,.93.16l-.15.4a3.12,3.12,0,0,0-.82-.14,1.24,1.24,0,0,0-.66.17.48.48,0,0,0-.27.42.4.4,0,0,0,.08.26.71.71,0,0,0,.23.19l.32.14.37.13a2.39,2.39,0,0,1,.37.15,1.5,1.5,0,0,1,.33.19.91.91,0,0,1,.23.28,1,1,0,0,1,.08.39.79.79,0,0,1,0,.3.89.89,0,0,1-.15.29,1.16,1.16,0,0,1-.28.26,1.74,1.74,0,0,1-.41.18,2.4,2.4,0,0,1-.56.06,2.47,2.47,0,0,1-.56-.06,5.51,5.51,0,0,1-.58-.19l.16-.44a3,3,0,0,0,1,.25,1.16,1.16,0,0,0,.65-.16.48.48,0,0,0,.25-.43.44.44,0,0,0-.11-.31.94.94,0,0,0-.29-.21l-.39-.15-.43-.15a3.54,3.54,0,0,1-.39-.19.78.78,0,0,1-.29-.28.75.75,0,0,1-.11-.43.86.86,0,0,1,.1-.41,1.05,1.05,0,0,1,.29-.34,1.54,1.54,0,0,1,.46-.24A2,2,0,0,1,132.41,92Z" transform="translate(-9.52 -2.72)"/><path d="M134.58,95.79V92h2.2v.39H135v1.22h1.6v.39H135V95.4h1.75v.4Z" transform="translate(-9.52 -2.72)"/><path d="M139.81,92a2.66,2.66,0,0,1,1,.21l-.14.37a2.75,2.75,0,0,0-.89-.18,1.45,1.45,0,0,0-.59.12,1.25,1.25,0,0,0-.45.33,1.64,1.64,0,0,0-.28.48,1.8,1.8,0,0,0-.1.57,1.62,1.62,0,0,0,.11.58,1.66,1.66,0,0,0,.29.48,1.37,1.37,0,0,0,.48.33,1.61,1.61,0,0,0,.63.13,2.35,2.35,0,0,0,.84-.16l.14.33a2.73,2.73,0,0,1-1.1.24,2.19,2.19,0,0,1-.63-.1,1.56,1.56,0,0,1-.51-.28,1.49,1.49,0,0,1-.38-.41,1.7,1.7,0,0,1-.24-.53,2.49,2.49,0,0,1-.08-.61,2.07,2.07,0,0,1,.23-1,1.66,1.66,0,0,1,.66-.68A1.89,1.89,0,0,1,139.81,92Z" transform="translate(-9.52 -2.72)"/><path d="M141.8,92.06h.45v2.43a2.13,2.13,0,0,0,0,.39.73.73,0,0,0,.16.3,1,1,0,0,0,.78.3,1.1,1.1,0,0,0,.62-.16.74.74,0,0,0,.33-.46,1.73,1.73,0,0,0,0-.36V92.07h.44v2.47a1.34,1.34,0,0,1,0,.21,1.29,1.29,0,0,1,0,.24,1,1,0,0,1-.09.26,1,1,0,0,1-.16.23.82.82,0,0,1-.25.2,1.38,1.38,0,0,1-.38.14,2.59,2.59,0,0,1-.51.05,2.23,2.23,0,0,1-.55-.07,1.22,1.22,0,0,1-.39-.15,1.12,1.12,0,0,1-.38-.44,1.06,1.06,0,0,1-.06-.19,2.13,2.13,0,0,1,0-.49Z" transform="translate(-9.52 -2.72)"/><path d="M148.44,93.11a1.42,1.42,0,0,1,0,.36,1.3,1.3,0,0,1-.14.32.92.92,0,0,1-.26.26,1.31,1.31,0,0,1-.4.17l1.06,1.61h-.51l-1-1.57h-.72v1.56H146V92.08h1.55l.2,0,.21.06a1,1,0,0,1,.19.12.61.61,0,0,1,.17.19.78.78,0,0,1,.11.26A1.11,1.11,0,0,1,148.44,93.11Zm-2,.76h.88a1.29,1.29,0,0,0,.24,0,.62.62,0,0,0,.23-.11.49.49,0,0,0,.16-.21.81.81,0,0,0,.07-.33.87.87,0,0,0-.12-.42.49.49,0,0,0-.13-.12.55.55,0,0,0-.15-.08l-.16,0-.14,0h-.88Z" transform="translate(-9.52 -2.72)"/><path d="M149.85,92.09h.44v3.74h-.45Z" transform="translate(-9.52 -2.72)"/><path d="M151.15,92.09h2.95v.39h-1.25v3.35h-.45V92.49h-1.25Z" transform="translate(-9.52 -2.72)"/><path d="M154.38,92.1h.53l1,1.55,1-1.54h.5l-1.28,2v1.77h-.44V94.08Z" transform="translate(-9.52 -2.72)"/></g></g></g><path id="dB2LXvOXE" d="M5.24.43" transform="translate(-9.52 -2.72)" fill-opacity="0" stroke="#000"/><path id="fRPtM5wZD" d="M5.24.43" transform="translate(-9.52 -2.72)" fill-opacity="0" stroke="#000"/><path id="b3GZio1wy" d="M5.24.43" transform="translate(-9.52 -2.72)" fill-opacity="0" stroke="#000"/><path id="i8sCAQpd9" d="M5.24.43" transform="translate(-9.52 -2.72)" fill-opacity="0" stroke="#000"/><path id="d1xkCKGyRk" d="M5.24.43" transform="translate(-9.52 -2.72)"/><path id="e2T7TjBgyi" d="M110.67,4.54l6.25,44.34,22.91-6Z" transform="translate(-9.52 -2.72)" fill-opacity="0" stroke="#000"/></svg>